<svg width="1112" height="1112" viewBox="0 0 1112 1112" fill="none" xmlns="http://www.w3.org/2000/svg">
<circle cx="556" cy="556" r="556" fill="white"/>
<path d="M522 521.179C522 483.471 501.139 447.307 464.007 420.643C426.875 393.98 376.513 379 324 379C271.487 379 221.125 393.98 183.993 420.643C146.861 447.307 126 483.471 126 521.179H192C192 496.04 205.907 471.931 230.662 454.155C255.417 436.379 288.991 426.393 324 426.393C359.009 426.393 392.583 436.379 417.338 454.155C442.093 471.931 456 496.04 456 521.179H522Z" fill="#282828"/>
<path d="M126 590.446C126 628.154 146.861 664.318 183.993 690.982C221.125 717.645 271.487 732.625 324 732.625C376.513 732.625 426.875 717.645 464.007 690.982C501.139 664.318 522 628.154 522 590.446H456C456 615.585 442.093 639.694 417.338 657.47C392.583 675.246 359.009 685.232 324 685.232C288.991 685.232 255.417 675.246 230.662 657.47C205.907 639.694 192 615.585 192 590.446H126Z" fill="#282828"/>
<path d="M226 526.041C232.041 526.041 238.022 526.796 243.603 528.261C249.184 529.727 254.255 531.875 258.527 534.583C262.798 537.292 266.187 540.507 268.498 544.045C270.81 547.584 272 551.376 272 555.206C272 559.036 270.81 562.829 268.498 566.367C266.187 569.906 262.798 573.121 258.527 575.829C254.255 578.537 249.184 580.685 243.603 582.151C238.022 583.617 232.041 584.371 226 584.371L226 555.206V526.041Z" fill="#282828"/>
<path d="M422 584.369C415.959 584.369 409.978 583.615 404.397 582.149C398.816 580.683 393.745 578.535 389.473 575.827C385.202 573.119 381.813 569.903 379.502 566.365C377.19 562.826 376 559.034 376 555.204C376 551.374 377.19 547.582 379.502 544.043C381.813 540.505 385.202 537.289 389.473 534.581C393.745 531.873 398.816 529.725 404.397 528.259C409.978 526.793 415.959 526.039 422 526.039L422 555.204V584.369Z" fill="#282828"/>
<rect x="422" y="539.406" width="134" height="30.3802" fill="#282828"/>
<path d="M92 584.369C85.9592 584.369 79.9775 583.615 74.3966 582.149C68.8156 580.683 63.7446 578.535 59.4731 575.827C55.2016 573.119 51.8133 569.903 49.5015 566.365C47.1898 562.826 46 559.034 46 555.204C46 551.374 47.1898 547.582 49.5015 544.043C51.8133 540.505 55.2016 537.289 59.4731 534.581C63.7446 531.873 68.8156 529.725 74.3966 528.259C79.9775 526.793 85.9592 526.039 92 526.039L92 555.204V584.369Z" fill="#282828"/>
<rect x="92" y="539.406" width="134" height="30.3802" fill="#282828"/>
<path d="M986 521.179C986 483.471 965.139 447.307 928.007 420.643C890.875 393.98 840.513 379 788 379C735.487 379 685.125 393.98 647.993 420.643C610.861 447.307 590 483.471 590 521.179H656C656 496.04 669.907 471.931 694.662 454.155C719.417 436.379 752.991 426.393 788 426.393C823.009 426.393 856.583 436.379 881.338 454.155C906.093 471.931 920 496.04 920 521.179H986Z" fill="#282828"/>
<path d="M590 590.446C590 628.154 610.861 664.318 647.993 690.982C685.125 717.645 735.487 732.625 788 732.625C840.513 732.625 890.875 717.645 928.007 690.982C965.139 664.318 986 628.154 986 590.446H920C920 615.585 906.093 639.694 881.338 657.47C856.583 675.246 823.009 685.232 788 685.232C752.991 685.232 719.417 675.246 694.662 657.47C669.907 639.694 656 615.585 656 590.446H590Z" fill="#282828"/>
<path d="M690 526.041C696.041 526.041 702.022 526.796 707.603 528.261C713.184 529.727 718.255 531.875 722.527 534.583C726.798 537.292 730.187 540.507 732.498 544.045C734.81 547.584 736 551.376 736 555.206C736 559.036 734.81 562.829 732.498 566.367C730.187 569.906 726.798 573.121 722.527 575.829C718.255 578.537 713.184 580.685 707.603 582.151C702.022 583.617 696.041 584.371 690 584.371L690 555.206V526.041Z" fill="#282828"/>
<path d="M886 584.369C879.959 584.369 873.978 583.615 868.397 582.149C862.816 580.683 857.745 578.535 853.473 575.827C849.202 573.119 845.813 569.903 843.502 566.365C841.19 562.826 840 559.034 840 555.204C840 551.374 841.19 547.582 843.502 544.043C845.813 540.505 849.202 537.289 853.473 534.581C857.745 531.873 862.816 529.725 868.397 528.259C873.978 526.793 879.959 526.039 886 526.039L886 555.204V584.369Z" fill="#282828"/>
<rect x="886" y="539.406" width="134" height="30.3802" fill="#282828"/>
<rect x="556" y="539.406" width="134" height="30.3802" fill="#282828"/>
<path d="M1020 526.041C1026.04 526.041 1032.02 526.796 1037.6 528.261C1043.18 529.727 1048.26 531.875 1052.53 534.583C1056.8 537.292 1060.19 540.507 1062.5 544.045C1064.81 547.584 1066 551.376 1066 555.206C1066 559.036 1064.81 562.829 1062.5 566.367C1060.19 569.906 1056.8 573.121 1052.53 575.829C1048.26 578.537 1043.18 580.685 1037.6 582.151C1032.02 583.617 1026.04 584.371 1020 584.371L1020 555.206V526.041Z" fill="#282828"/>
</svg>
